<?xml version="1.0" encoding="utf-8"?>
<!-- Generator: Adobe Illustrator 22.0.0, SVG Export Plug-In . SVG Version: 6.00 Build 0)  -->
<svg version="1.1" id="Camada_1" xmlns="http://www.w3.org/2000/svg" xmlns:xlink="http://www.w3.org/1999/xlink" x="0px" y="0px"
	 viewBox="0 0 40 40" style="enable-background:new 0 0 40 40;" xml:space="preserve">
<style type="text/css">
	.st0{fill:#547ECB;}
	.st1{fill:#D55D5D;}
	.st2{fill:#FFDD15;}
</style>
<g>
	<rect x="12.2" y="8.4" transform="matrix(0.5793 -0.8151 0.8151 0.5793 -8.6671 17.683)" class="st0" width="1.2" height="17.7"/>
	<rect x="19.4" y="22.4" class="st1" width="1.2" height="15"/>
	<polygon class="st2" points="33.8,12.7 33.8,27.1 20,36.4 20,37.8 35,27.7 35,12.1 	"/>
	<path class="st2" d="M20,23c-0.2,0-0.4-0.1-0.5-0.3c-0.2-0.3-0.1-0.6,0.2-0.8l14.4-9.3c0.3-0.2,0.6-0.1,0.8,0.2
		c0.2,0.3,0.1,0.6-0.2,0.8l-14.4,9.3C20.2,22.9,20.1,23,20,23z"/>
	<polygon class="st0" points="20,2 5,12.1 6.2,13.3 6.2,12.8 20,3.4 33.8,12.8 35,12.1 	"/>
	<polygon class="st1" points="6.2,27.1 6.2,13.3 5,12.1 5,27.7 20,37.8 20,36.4 	"/>
	<path class="st2" d="M20,2"/>
</g>
</svg>
